# xmcd
#
# Track frame offsets: 
#        150
#        15199
#        26198
#        37872
#        50596
#        63320
#        77394
#        89143
#        101642
#        113391
#        127540
#        141689
#        155538
#        169012
#        179111
#        192285
#        205909
#
# Disc length: 2899 seconds
#
# Revision: 0
# Processed by: cddbd v1.5.2PL0 Copyright (c) Steve Scherf et al.
# Submitted via: ExactAudioCopy v1.0b4
#
DISCID=de0b5111
DTITLE=Muddy Waters - Original Hits and Rarities 1941-1961 Louisiana Blu
DTITLE=es
DYEAR=1900
DGENRE=Blues
TTITLE0=Streamlined Woman
TTITLE1=Muddy Jumps One
TTITLE2=Hard Days
TTITLE3=Train Fare Home Blues
TTITLE4=Little Geneva
TTITLE5=Screamin' And Cryin'
TTITLE6=Burying Ground
TTITLE7=Canary Bird
TTITLE8=Last Time I Fool Around With You
TTITLE9=Where's My Woman Been
TTITLE10=You're Gonna Need My Help I Said
TTITLE11=Sad Letter Blues
TTITLE12=Walking Blues
TTITLE13=Evans Shuffle
TTITLE14=Louisiana Blues
TTITLE15=Rollin' And Tumblin' (Part One)
TTITLE16=Rollin' And Tumblin' (Part Two)
EXTD=
EXTT0=
EXTT1=
EXTT2=
EXTT3=
EXTT4=
EXTT5=
EXTT6=
EXTT7=
EXTT8=
EXTT9=
EXTT10=
EXTT11=
EXTT12=
EXTT13=
EXTT14=
EXTT15=
EXTT16=
PLAYORDER=
